<svg width="86" height="86" viewBox="0 0 86 86" fill="none" xmlns="http://www.w3.org/2000/svg">
<g id="bulb-icon" clip-path="url(#clip0_7905_2)">
<g id="bulb">
<path id="Vector" d="M60.0953 48.2252C62.9883 44.4104 64.5174 39.857 64.5174 35.0572C64.5174 29.1722 62.2093 23.6555 58.0182 19.5231C53.8279 15.3917 48.2741 13.1606 42.3883 13.2457C36.6846 13.3264 31.3108 15.6151 27.257 19.6902C23.2033 23.7651 20.9424 29.151 20.8906 34.8553C20.8462 39.7455 22.3843 44.3807 25.3384 48.2601C30.1341 54.5577 32.7754 62.2718 32.7754 69.9814V78.4172C32.7754 82.1591 35.8196 85.2033 39.5615 85.2033H45.8737C49.6156 85.2033 52.6598 82.1589 52.6598 78.4172V69.9819C52.66 62.1871 55.2125 54.6636 60.0953 48.2252V48.2252ZM27.5635 46.5658C24.989 43.185 23.6486 39.1444 23.6872 34.8808C23.7802 24.6381 32.1872 16.1871 42.4279 16.0423C47.5652 15.9733 52.4017 17.9133 56.0545 21.515C59.7084 25.1174 61.7206 29.927 61.7206 35.0574C61.7206 39.2418 60.388 43.2108 57.8668 46.5354C52.7221 53.3195 49.952 61.234 49.8386 69.456H35.5683C35.4514 61.3138 32.6192 53.2046 27.5635 46.5658V46.5658ZM35.5722 77.4695V76.3373L49.8632 77.9746V78.4172C49.8632 78.6503 49.839 78.8774 49.8006 79.0994L35.5722 77.4695ZM35.5722 73.5223V72.2527H49.8632V75.1595L35.5722 73.5223V73.5223ZM39.5615 82.4067C38.0593 82.4067 36.7495 81.5714 36.0691 80.3414L48.1077 81.7206C47.4699 82.1533 46.701 82.4065 45.8739 82.4065H39.5615V82.4067Z" fill="black"/>
<path id="Vector_2" d="M28.8758 37.1606C28.7667 36.4287 28.7147 35.677 28.7216 34.9263C28.7287 34.154 28.1084 33.5223 27.3361 33.5152C26.569 33.5085 25.9321 34.1285 25.925 34.9008C25.9168 35.7976 25.9789 36.6967 26.1096 37.5732C26.2131 38.2672 26.8097 38.7655 27.491 38.7655C27.5597 38.7655 27.6292 38.7605 27.6991 38.7501C28.4628 38.636 28.9897 37.9245 28.8758 37.1606Z" fill="black"/>
<path id="Vector_3" d="M37.1052 58.4015C37.2499 58.4015 37.3972 58.3788 37.5422 58.3312C38.2759 58.09 38.6751 57.2996 38.4339 56.5661C36.8841 51.8531 34.5743 47.4622 31.5687 43.5156C31.072 42.8632 30.6318 42.1683 30.2605 41.4499C29.9059 40.7637 29.0622 40.4952 28.3761 40.8499C27.6901 41.2045 27.4214 42.0482 27.7761 42.7343C28.2217 43.5961 28.749 44.429 29.3438 45.21C32.1603 48.9085 34.3248 53.0231 35.7771 57.4396C35.9706 58.0283 36.5175 58.4015 37.1052 58.4015Z" fill="black"/>
<path id="Vector_4" d="M57.397 39.8455C56.6877 39.5399 55.8649 39.8673 55.5595 40.5766C55.1165 41.6054 54.5432 42.5867 53.8555 43.4932C53.3888 44.1085 53.5095 44.9858 54.1248 45.4525C54.3774 45.6442 54.6742 45.7366 54.9686 45.7366C55.3913 45.7366 55.809 45.5459 56.084 45.1831C56.9079 44.0966 57.5956 42.919 58.1281 41.683C58.4337 40.9737 58.1065 40.1509 57.397 39.8455V39.8455Z" fill="black"/>
<path id="Vector_5" d="M42.7036 21.0746C50.4137 21.0746 56.6864 27.3474 56.6864 35.0575C56.6864 35.4959 56.6662 35.9376 56.6265 36.3703C56.556 37.1395 57.1221 37.82 57.8912 37.8907C57.9347 37.8946 57.9777 37.8966 58.0206 37.8966C58.7353 37.8966 59.345 37.3516 59.4115 36.626C59.4589 36.1086 59.4831 35.5809 59.4831 35.0575C59.4831 25.8052 51.9559 18.2778 42.7036 18.2778C41.9313 18.2778 41.3052 18.9039 41.3052 19.6762C41.3052 20.4484 41.9313 21.0746 42.7036 21.0746V21.0746Z" fill="black"/>
</g>
<g id="light-vector">
<path id="Vector_6" d="M42.7036 10.8313C43.4759 10.8313 44.102 10.2052 44.102 9.43294V1.60194C44.102 0.829659 43.4759 0.203552 42.7036 0.203552C41.9313 0.203552 41.3052 0.829659 41.3052 1.60194V9.43294C41.3052 10.2052 41.9313 10.8313 42.7036 10.8313Z" fill="black"/>
<path id="Vector_7" d="M28.5567 13.5943C28.8159 14.0431 29.2857 14.2939 29.769 14.2939C30.0062 14.2939 30.2467 14.2334 30.4669 14.1063C31.1357 13.7201 31.3651 12.8649 30.9789 12.1961L27.0653 5.41669C26.679 4.7477 25.8239 4.51855 25.1551 4.90469C24.4863 5.29083 24.257 6.14609 24.6431 6.81489L28.5567 13.5943Z" fill="black"/>
<path id="Vector_8" d="M72.5881 50.9397L65.8087 47.0261C65.1397 46.6398 64.2845 46.8691 63.8985 47.5381C63.5124 48.2069 63.7415 49.0621 64.4105 49.4483L71.1899 53.3619C71.4101 53.4891 71.6504 53.5495 71.8878 53.5495C72.3711 53.5495 72.8411 53.2985 73.1001 52.8499C73.4863 52.1811 73.2569 51.3258 72.5881 50.9397V50.9397Z" fill="black"/>
<path id="Vector_9" d="M12.8192 19.6628L19.5986 23.5764C19.8188 23.7036 20.0591 23.764 20.2965 23.764C20.7798 23.764 21.2498 23.513 21.5088 23.0644C21.895 22.3956 21.6658 21.5403 20.9968 21.1542L14.2174 17.2406C13.5486 16.8542 12.6933 17.0836 12.3072 17.7526C11.9211 18.4214 12.1502 19.2764 12.8192 19.6628V19.6628Z" fill="black"/>
<path id="Vector_10" d="M76.4032 33.9027H68.5722C67.7999 33.9027 67.1738 34.5288 67.1738 35.3011C67.1738 36.0734 67.7999 36.6995 68.5722 36.6995H76.4032C77.1755 36.6995 77.8016 36.0734 77.8016 35.3011C77.8016 34.5288 77.1756 33.9027 76.4032 33.9027Z" fill="black"/>
<path id="Vector_11" d="M18.2337 35.3011C18.2337 34.5288 17.6076 33.9027 16.8353 33.9027H9.00435C8.23206 33.9027 7.60596 34.5288 7.60596 35.3011C7.60596 36.0734 8.23206 36.6995 9.00435 36.6995H16.8353C17.6078 36.6995 18.2337 36.0734 18.2337 35.3011Z" fill="black"/>
<path id="Vector_12" d="M65.1108 23.7638C65.3479 23.7638 65.5885 23.7034 65.8087 23.5763L72.5881 19.6626C73.2569 19.2765 73.4862 18.4212 73.1001 17.7524C72.7139 17.0836 71.8585 16.8543 71.1899 17.2404L64.4105 21.1541C63.7417 21.5402 63.5123 22.3955 63.8985 23.0643C64.1575 23.5129 64.6277 23.7638 65.1108 23.7638Z" fill="black"/>
<path id="Vector_13" d="M19.5986 47.0262L12.8192 50.9398C12.1504 51.3259 11.921 52.1812 12.3072 52.85C12.5661 53.2986 13.0362 53.5495 13.5195 53.5495C13.7566 53.5495 13.9972 53.4891 14.2174 53.362L20.9968 49.4484C21.6656 49.0622 21.8949 48.207 21.5088 47.5382C21.1228 46.8692 20.267 46.64 19.5986 47.0262V47.0262Z" fill="black"/>
<path id="Vector_14" d="M54.9407 14.1063C55.1609 14.2334 55.4013 14.2938 55.6386 14.2938C56.1219 14.2938 56.592 14.0429 56.8509 13.5943L60.7646 6.81487C61.1507 6.14607 60.9214 5.29082 60.2526 4.90467C59.584 4.51853 58.7285 4.74768 58.3424 5.41667L54.4287 12.1961C54.0426 12.8649 54.2719 13.7201 54.9407 14.1063V14.1063Z" fill="black"/>
</g>
</g>
<defs>
<clipPath id="clip0_7905_2">
<rect width="85" height="85" fill="white" transform="translate(0.203613 0.203552)"/>
</clipPath>
</defs>
</svg>
