<svg aria-hidden="true" style="position: absolute; width: 0; height: 0; overflow: hidden;" version="1.1" xmlns="http://www.w3.org/2000/svg" xmlns:xlink="http://www.w3.org/1999/xlink">
<defs>
<symbol id="lamp-two" viewBox="0 0 32 32">
<path d="M22.361 17.944c1.076-1.419 1.645-3.114 1.645-4.9 0-2.19-0.859-4.242-2.418-5.78s-3.626-2.367-5.816-2.336c-2.122 0.030-4.122 0.882-5.63 2.398s-2.35 3.52-2.369 5.643c-0.017 1.82 0.556 3.544 1.655 4.988 1.784 2.343 2.767 5.214 2.767 8.082v3.139c0 1.392 1.133 2.525 2.525 2.525h2.349c1.392 0 2.525-1.133 2.525-2.525v-3.139c0-2.9 0.95-5.7 2.767-8.096v0zM10.256 17.327c-0.958-1.258-1.457-2.761-1.442-4.348 0.035-3.811 3.163-6.956 6.973-7.010 1.912-0.026 3.711 0.696 5.070 2.036s2.108 3.13 2.108 5.039c0 1.557-0.496 3.034-1.434 4.271-1.914 2.524-2.945 5.469-2.987 8.529h-5.31c-0.043-3.030-1.097-6.047-2.979-8.517v0zM13.236 28.826v-0.421l5.318 0.609v0.165c0 0.087-0.009 0.171-0.023 0.254l-5.294-0.606zM13.236 27.357v-0.472h5.318v1.082l-5.318-0.609zM14.721 30.663c-0.559 0-1.046-0.311-1.3-0.768l4.479 0.513c-0.237 0.161-0.523 0.255-0.831 0.255l-2.349 0z"></path>
<path d="M10.744 13.827c-0.041-0.272-0.060-0.552-0.057-0.831 0.003-0.287-0.228-0.522-0.516-0.525-0.285-0.002-0.522 0.228-0.525 0.516-0.003 0.334 0.020 0.668 0.069 0.994 0.039 0.258 0.261 0.444 0.514 0.444 0.026 0 0.051-0.002 0.077-0.006 0.284-0.042 0.48-0.307 0.438-0.591z"></path>
<path d="M13.807 21.731c0.054 0 0.109-0.008 0.163-0.026 0.273-0.090 0.422-0.384 0.332-0.657-0.577-1.754-1.436-3.387-2.555-4.856-0.185-0.243-0.349-0.501-0.487-0.769-0.132-0.255-0.446-0.355-0.701-0.223s-0.355 0.446-0.223 0.701c0.166 0.321 0.362 0.631 0.583 0.921 1.048 1.376 1.853 2.907 2.394 4.551 0.072 0.219 0.275 0.358 0.494 0.358z"></path>
<path d="M21.357 14.826c-0.264-0.114-0.57 0.008-0.684 0.272-0.165 0.383-0.378 0.748-0.634 1.085-0.174 0.229-0.129 0.555 0.1 0.729 0.094 0.071 0.204 0.106 0.314 0.106 0.157 0 0.313-0.071 0.415-0.206 0.307-0.404 0.562-0.842 0.761-1.302 0.114-0.264-0.008-0.57-0.272-0.684v0z"></path>
<path d="M15.89 7.842c2.869 0 5.203 2.334 5.203 5.203 0 0.163-0.008 0.327-0.022 0.488-0.026 0.286 0.184 0.539 0.471 0.566 0.016 0.001 0.032 0.002 0.048 0.002 0.266 0 0.493-0.203 0.518-0.473 0.018-0.193 0.027-0.389 0.027-0.584 0-3.443-2.801-6.244-6.244-6.244-0.287 0-0.52 0.233-0.52 0.52s0.233 0.52 0.52 0.52v0z"></path>
<path d="M15.89 4.030c0.287 0 0.52-0.233 0.52-0.52v-2.914c0-0.287-0.233-0.52-0.52-0.52s-0.52 0.233-0.52 0.52v2.914c0 0.287 0.233 0.52 0.52 0.52z"></path>
<path d="M10.626 5.058c0.096 0.167 0.271 0.26 0.451 0.26 0.088 0 0.178-0.022 0.26-0.070 0.249-0.144 0.334-0.462 0.191-0.711l-1.456-2.523c-0.144-0.249-0.462-0.334-0.711-0.191s-0.334 0.462-0.191 0.711l1.456 2.523z"></path>
<path d="M27.010 18.954l-2.523-1.456c-0.249-0.144-0.567-0.058-0.711 0.191s-0.058 0.567 0.191 0.711l2.523 1.456c0.082 0.047 0.171 0.070 0.26 0.070 0.18 0 0.355-0.093 0.451-0.26 0.144-0.249 0.058-0.567-0.191-0.711v0z"></path>
<path d="M4.77 7.316l2.523 1.456c0.082 0.047 0.171 0.070 0.26 0.070 0.18 0 0.355-0.093 0.451-0.26 0.144-0.249 0.058-0.567-0.191-0.711l-2.523-1.456c-0.249-0.144-0.567-0.058-0.711 0.191s-0.058 0.567 0.191 0.711v0z"></path>
<path d="M28.429 12.615h-2.914c-0.287 0-0.52 0.233-0.52 0.52s0.233 0.52 0.52 0.52h2.914c0.287 0 0.52-0.233 0.52-0.52s-0.233-0.52-0.52-0.52z"></path>
<path d="M6.785 13.135c0-0.287-0.233-0.52-0.52-0.52h-2.914c-0.287 0-0.52 0.233-0.52 0.52s0.233 0.52 0.52 0.52h2.914c0.287 0 0.52-0.233 0.52-0.52z"></path>
<path d="M24.227 8.842c0.088 0 0.178-0.022 0.26-0.070l2.523-1.456c0.249-0.144 0.334-0.462 0.191-0.711s-0.462-0.334-0.711-0.191l-2.523 1.456c-0.249 0.144-0.334 0.462-0.191 0.711 0.096 0.167 0.271 0.26 0.451 0.26z"></path>
<path d="M7.293 17.498l-2.523 1.456c-0.249 0.144-0.334 0.462-0.191 0.711 0.096 0.167 0.271 0.26 0.451 0.26 0.088 0 0.178-0.022 0.26-0.070l2.523-1.456c0.249-0.144 0.334-0.462 0.191-0.711s-0.462-0.334-0.711-0.191v0z"></path>
<path d="M20.443 5.249c0.082 0.047 0.171 0.070 0.26 0.070 0.18 0 0.355-0.093 0.451-0.26l1.456-2.523c0.144-0.249 0.058-0.567-0.191-0.711s-0.567-0.058-0.711 0.191l-1.456 2.523c-0.144 0.249-0.058 0.567 0.191 0.711v0z"></path>
</symbol>
</defs>
</svg>
